<svg width="1005" height="237" viewBox="0 0 1005 237" fill="none" xmlns="http://www.w3.org/2000/svg">
<path d="M119 81.25V100.875H20.5V81.25H119ZM24.25 3V185H0.125V3H24.25ZM140 3V185H116V3H140ZM173.25 118.875V116C173.25 106.25 174.667 97.2083 177.5 88.875C180.333 80.4583 184.417 73.1667 189.75 67C195.083 60.75 201.542 55.9167 209.125 52.5C216.708 49 225.208 47.25 234.625 47.25C244.125 47.25 252.667 49 260.25 52.5C267.917 55.9167 274.417 60.75 279.75 67C285.167 73.1667 289.292 80.4583 292.125 88.875C294.958 97.2083 296.375 106.25 296.375 116V118.875C296.375 128.625 294.958 137.667 292.125 146C289.292 154.333 285.167 161.625 279.75 167.875C274.417 174.042 267.958 178.875 260.375 182.375C252.875 185.792 244.375 187.5 234.875 187.5C225.375 187.5 216.833 185.792 209.25 182.375C201.667 178.875 195.167 174.042 189.75 167.875C184.417 161.625 180.333 154.333 177.5 146C174.667 137.667 173.25 128.625 173.25 118.875ZM196.375 116V118.875C196.375 125.625 197.167 132 198.75 138C200.333 143.917 202.708 149.167 205.875 153.75C209.125 158.333 213.167 161.958 218 164.625C222.833 167.208 228.458 168.5 234.875 168.5C241.208 168.5 246.75 167.208 251.5 164.625C256.333 161.958 260.333 158.333 263.5 153.75C266.667 149.167 269.042 143.917 270.625 138C272.292 132 273.125 125.625 273.125 118.875V116C273.125 109.333 272.292 103.042 270.625 97.125C269.042 91.125 266.625 85.8333 263.375 81.25C260.208 76.5833 256.208 72.9167 251.375 70.25C246.625 67.5833 241.042 66.25 234.625 66.25C228.292 66.25 222.708 67.5833 217.875 70.25C213.125 72.9167 209.125 76.5833 205.875 81.25C202.708 85.8333 200.333 91.125 198.75 97.125C197.167 103.042 196.375 109.333 196.375 116ZM348.5 75.75V237H325.25V49.75H346.5L348.5 75.75ZM439.625 116.25V118.875C439.625 128.708 438.458 137.833 436.125 146.25C433.792 154.583 430.375 161.833 425.875 168C421.458 174.167 416 178.958 409.5 182.375C403 185.792 395.542 187.5 387.125 187.5C378.542 187.5 370.958 186.083 364.375 183.25C357.792 180.417 352.208 176.292 347.625 170.875C343.042 165.458 339.375 158.958 336.625 151.375C333.958 143.792 332.125 135.25 331.125 125.75V111.75C332.125 101.75 334 92.7917 336.75 84.875C339.5 76.9583 343.125 70.2083 347.625 64.625C352.208 58.9583 357.75 54.6667 364.25 51.75C370.75 48.75 378.25 47.25 386.75 47.25C395.25 47.25 402.792 48.9167 409.375 52.25C415.958 55.5 421.5 60.1667 426 66.25C430.5 72.3333 433.875 79.625 436.125 88.125C438.458 96.5417 439.625 105.917 439.625 116.25ZM416.375 118.875V116.25C416.375 109.5 415.667 103.167 414.25 97.25C412.833 91.25 410.625 86 407.625 81.5C404.708 76.9167 400.958 73.3333 396.375 70.75C391.792 68.0833 386.333 66.75 380 66.75C374.167 66.75 369.083 67.75 364.75 69.75C360.5 71.75 356.875 74.4583 353.875 77.875C350.875 81.2083 348.417 85.0417 346.5 89.375C344.667 93.625 343.292 98.0417 342.375 102.625V135C344.042 140.833 346.375 146.333 349.375 151.5C352.375 156.583 356.375 160.708 361.375 163.875C366.375 166.958 372.667 168.5 380.25 168.5C386.5 168.5 391.875 167.208 396.375 164.625C400.958 161.958 404.708 158.333 407.625 153.75C410.625 149.167 412.833 143.917 414.25 138C415.667 132 416.375 125.625 416.375 118.875ZM525.75 49.75V67.5H452.625V49.75H525.75ZM477.375 16.875H500.5V151.5C500.5 156.083 501.208 159.542 502.625 161.875C504.042 164.208 505.875 165.75 508.125 166.5C510.375 167.25 512.792 167.625 515.375 167.625C517.292 167.625 519.292 167.458 521.375 167.125C523.542 166.708 525.167 166.375 526.25 166.125L526.375 185C524.542 185.583 522.125 186.125 519.125 186.625C516.208 187.208 512.667 187.5 508.5 187.5C502.833 187.5 497.625 186.375 492.875 184.125C488.125 181.875 484.333 178.125 481.5 172.875C478.75 167.542 477.375 160.375 477.375 151.375V16.875ZM578 49.75V185H554.75V49.75H578ZM553 13.875C553 10.125 554.125 6.95833 556.375 4.375C558.708 1.79167 562.125 0.5 566.625 0.5C571.042 0.5 574.417 1.79167 576.75 4.375C579.167 6.95833 580.375 10.125 580.375 13.875C580.375 17.4583 579.167 20.5417 576.75 23.125C574.417 25.625 571.042 26.875 566.625 26.875C562.125 26.875 558.708 25.625 556.375 23.125C554.125 20.5417 553 17.4583 553 13.875ZM609 118.875V116C609 106.25 610.417 97.2083 613.25 88.875C616.083 80.4583 620.167 73.1667 625.5 67C630.833 60.75 637.292 55.9167 644.875 52.5C652.458 49 660.958 47.25 670.375 47.25C679.875 47.25 688.417 49 696 52.5C703.667 55.9167 710.167 60.75 715.5 67C720.917 73.1667 725.042 80.4583 727.875 88.875C730.708 97.2083 732.125 106.25 732.125 116V118.875C732.125 128.625 730.708 137.667 727.875 146C725.042 154.333 720.917 161.625 715.5 167.875C710.167 174.042 703.708 178.875 696.125 182.375C688.625 185.792 680.125 187.5 670.625 187.5C661.125 187.5 652.583 185.792 645 182.375C637.417 178.875 630.917 174.042 625.5 167.875C620.167 161.625 616.083 154.333 613.25 146C610.417 137.667 609 128.625 609 118.875ZM632.125 116V118.875C632.125 125.625 632.917 132 634.5 138C636.083 143.917 638.458 149.167 641.625 153.75C644.875 158.333 648.917 161.958 653.75 164.625C658.583 167.208 664.208 168.5 670.625 168.5C676.958 168.5 682.5 167.208 687.25 164.625C692.083 161.958 696.083 158.333 699.25 153.75C702.417 149.167 704.792 143.917 706.375 138C708.042 132 708.875 125.625 708.875 118.875V116C708.875 109.333 708.042 103.042 706.375 97.125C704.792 91.125 702.375 85.8333 699.125 81.25C695.958 76.5833 691.958 72.9167 687.125 70.25C682.375 67.5833 676.792 66.25 670.375 66.25C664.042 66.25 658.458 67.5833 653.625 70.25C648.875 72.9167 644.875 76.5833 641.625 81.25C638.458 85.8333 636.083 91.125 634.5 97.125C632.917 103.042 632.125 109.333 632.125 116ZM784.25 78.625V185H761.125V49.75H783L784.25 78.625ZM778.75 112.25L769.125 111.875C769.208 102.625 770.583 94.0833 773.25 86.25C775.917 78.3333 779.667 71.4583 784.5 65.625C789.333 59.7917 795.083 55.2917 801.75 52.125C808.5 48.875 815.958 47.25 824.125 47.25C830.792 47.25 836.792 48.1667 842.125 50C847.458 51.75 852 54.5833 855.75 58.5C859.583 62.4167 862.5 67.5 864.5 73.75C866.5 79.9167 867.5 87.4583 867.5 96.375V185H844.25V96.125C844.25 89.0417 843.208 83.375 841.125 79.125C839.042 74.7917 836 71.6667 832 69.75C828 67.75 823.083 66.75 817.25 66.75C811.5 66.75 806.25 67.9583 801.5 70.375C796.833 72.7917 792.792 76.125 789.375 80.375C786.042 84.625 783.417 89.5 781.5 95C779.667 100.417 778.75 106.167 778.75 112.25ZM981.375 149.125C981.375 145.792 980.625 142.708 979.125 139.875C977.708 136.958 974.75 134.333 970.25 132C965.833 129.583 959.167 127.5 950.25 125.75C942.75 124.167 935.958 122.292 929.875 120.125C923.875 117.958 918.75 115.333 914.5 112.25C910.333 109.167 907.125 105.542 904.875 101.375C902.625 97.2083 901.5 92.3333 901.5 86.75C901.5 81.4167 902.667 76.375 905 71.625C907.417 66.875 910.792 62.6667 915.125 59C919.542 55.3333 924.833 52.4583 931 50.375C937.167 48.2917 944.042 47.25 951.625 47.25C962.458 47.25 971.708 49.1667 979.375 53C987.042 56.8333 992.917 61.9583 997 68.375C1001.08 74.7083 1003.12 81.75 1003.12 89.5H980C980 85.75 978.875 82.125 976.625 78.625C974.458 75.0417 971.25 72.0833 967 69.75C962.833 67.4167 957.708 66.25 951.625 66.25C945.208 66.25 940 67.25 936 69.25C932.083 71.1667 929.208 73.625 927.375 76.625C925.625 79.625 924.75 82.7917 924.75 86.125C924.75 88.625 925.167 90.875 926 92.875C926.917 94.7917 928.5 96.5833 930.75 98.25C933 99.8333 936.167 101.333 940.25 102.75C944.333 104.167 949.542 105.583 955.875 107C966.958 109.5 976.083 112.5 983.25 116C990.417 119.5 995.75 123.792 999.25 128.875C1002.75 133.958 1004.5 140.125 1004.5 147.375C1004.5 153.292 1003.25 158.708 1000.75 163.625C998.333 168.542 994.792 172.792 990.125 176.375C985.542 179.875 980.042 182.625 973.625 184.625C967.292 186.542 960.167 187.5 952.25 187.5C940.333 187.5 930.25 185.375 922 181.125C913.75 176.875 907.5 171.375 903.25 164.625C899 157.875 896.875 150.75 896.875 143.25H920.125C920.458 149.583 922.292 154.625 925.625 158.375C928.958 162.042 933.042 164.667 937.875 166.25C942.708 167.75 947.5 168.5 952.25 168.5C958.583 168.5 963.875 167.667 968.125 166C972.458 164.333 975.75 162.042 978 159.125C980.25 156.208 981.375 152.875 981.375 149.125Z" fill="#1A1A1A" fill-opacity="0.85"/>
</svg>
