<svg width="1198" height="602" viewBox="0 0 1198 602" fill="none" xmlns="http://www.w3.org/2000/svg">
<g clip-path="url(#clip0_21_13)">
<path d="M115.783 199.371H36.4309V157.724H115.783C129.601 157.724 140.768 155.492 149.283 151.028C157.797 146.563 164.009 140.424 167.917 132.611C171.965 124.659 173.988 115.589 173.988 105.405C173.988 95.7775 171.965 86.7791 167.917 78.4078C164.009 69.8966 157.797 63.0604 149.283 57.898C140.768 52.7367 129.601 50.1549 115.783 50.1549H52.5526V313.01H0V8.29931H115.783C139.372 8.29931 159.402 12.4849 175.873 20.8565C192.483 29.0879 205.115 40.5283 213.769 55.1775C222.424 69.688 226.75 86.2907 226.75 104.986C226.75 124.659 222.424 141.54 213.769 155.632C205.115 169.723 192.483 180.536 175.873 188.071C159.402 195.604 139.372 199.371 115.783 199.371ZM394.039 267.596V159.608C394.039 151.516 392.573 144.54 389.643 138.68C386.711 132.82 382.245 128.286 376.243 125.077C370.38 121.868 362.982 120.263 354.05 120.263C345.814 120.263 338.695 121.658 332.693 124.449C326.691 127.239 322.015 131.006 318.665 135.75C315.316 140.494 313.64 145.866 313.64 151.865H263.391C263.391 142.935 265.554 134.285 269.882 125.914C274.208 117.543 280.49 110.078 288.725 103.522C296.96 96.9641 306.801 91.8017 318.246 88.0345C329.692 84.2673 342.534 82.3837 356.771 82.3837C373.8 82.3837 388.874 85.244 401.996 90.9648C415.256 96.6844 425.655 105.335 433.192 116.916C440.869 128.356 444.707 142.727 444.707 160.026V260.69C444.707 271.014 445.405 280.293 446.801 288.524C448.337 296.616 450.5 303.662 453.292 309.661V313.01H401.577C399.204 307.569 397.319 300.662 395.924 292.291C394.668 283.78 394.039 275.549 394.039 267.596ZM401.367 175.304L401.786 206.487H365.565C356.213 206.487 347.978 207.394 340.858 209.207C333.74 210.881 327.807 213.393 323.062 216.741C318.316 220.09 314.757 224.135 312.384 228.879C310.011 233.623 308.825 238.994 308.825 244.994C308.825 250.993 310.221 256.504 313.013 261.526C315.803 266.41 319.852 270.247 325.155 273.038C330.599 275.828 337.159 277.222 344.837 277.222C355.165 277.222 364.169 275.13 371.846 270.944C379.662 266.619 385.804 261.388 390.27 255.249C394.738 248.971 397.111 243.04 397.389 237.46L413.721 259.853C412.045 265.573 409.184 271.711 405.136 278.269C401.088 284.827 395.784 291.105 389.224 297.104C382.802 302.965 375.056 307.777 365.984 311.544C357.05 315.312 346.722 317.195 334.996 317.195C320.201 317.195 307.011 314.265 295.425 308.406C283.84 302.406 274.766 294.383 268.206 284.338C261.646 274.153 258.366 262.643 258.366 249.808C258.366 237.809 260.599 227.205 265.065 217.997C269.672 208.649 276.372 200.836 285.166 194.557C294.098 188.279 304.986 183.535 317.828 180.326C330.669 176.979 345.326 175.304 361.796 175.304H401.367ZM547.509 134.914V313.01H497.05V86.5693H544.578L547.509 134.914ZM538.507 191.418L522.176 191.21C522.316 175.164 524.549 160.445 528.875 147.051C533.342 133.657 539.483 122.147 547.3 112.52C555.256 102.893 564.748 95.4989 575.775 90.3365C586.802 85.0354 599.085 82.3837 612.624 82.3837C623.512 82.3837 633.352 83.9187 642.146 86.9878C651.079 89.9181 658.686 94.732 664.968 101.428C671.388 108.126 676.273 116.846 679.624 127.588C682.974 138.192 684.648 151.237 684.648 166.724V313.01H633.981V166.514C633.981 155.632 632.375 147.051 629.164 140.773C626.094 134.355 621.558 129.821 615.556 127.169C609.693 124.379 602.365 122.984 593.571 122.984C584.917 122.984 577.171 124.799 570.332 128.426C563.491 132.053 557.699 137.006 552.953 143.284C548.347 149.563 544.788 156.817 542.275 165.049C539.763 173.281 538.507 182.071 538.507 191.418ZM840.003 86.5693V123.403H712.285V86.5693H840.003ZM749.136 31.1103H799.594V250.435C799.594 257.411 800.571 262.783 802.525 266.55C804.62 270.177 807.48 272.618 811.11 273.875C814.739 275.13 818.996 275.758 823.882 275.758C827.371 275.758 830.721 275.549 833.931 275.13C837.141 274.712 839.724 274.293 841.678 273.875L841.888 312.381C837.7 313.638 832.815 314.753 827.232 315.73C821.787 316.707 815.506 317.195 808.387 317.195C796.802 317.195 786.544 315.172 777.61 311.126C768.676 306.94 761.697 300.174 756.672 290.826C751.648 281.478 749.136 269.061 749.136 253.575V31.1103ZM929.615 129.681V313.01H879.156V86.5693H927.311L929.615 129.681ZM998.917 85.1042L998.498 131.983C995.428 131.425 992.078 131.006 988.449 130.728C984.958 130.448 981.469 130.309 977.979 130.309C969.325 130.309 961.719 131.565 955.158 134.076C948.598 136.448 943.084 139.936 938.618 144.54C934.291 149.004 930.94 154.445 928.567 160.863C926.194 167.282 924.799 174.467 924.38 182.42L912.864 183.257C912.864 169.026 914.26 155.841 917.052 143.703C919.844 131.565 924.031 120.891 929.615 111.683C935.338 102.475 942.456 95.2891 950.971 90.1279C959.624 84.9654 969.605 82.3837 980.911 82.3837C983.981 82.3837 987.262 82.6634 990.752 83.2217C994.381 83.7789 997.102 84.4071 998.917 85.1042ZM1084.55 86.5693V313.01H1033.88V86.5693H1084.55ZM1030.53 27.1344C1030.53 19.4608 1033.04 13.1126 1038.07 8.08997C1043.23 2.92778 1050.35 0.34668 1059.43 0.34668C1068.36 0.34668 1075.41 2.92778 1080.57 8.08997C1085.74 13.1126 1088.32 19.4608 1088.32 27.1344C1088.32 34.6688 1085.74 40.9467 1080.57 45.9693C1075.41 50.9918 1068.36 53.5037 1059.43 53.5037C1050.35 53.5037 1043.23 50.9918 1038.07 45.9693C1033.04 40.9467 1030.53 34.6688 1030.53 27.1344ZM1193.84 86.5693V313.01H1143.18V86.5693H1193.84ZM1139.83 27.1344C1139.83 19.4608 1142.33 13.1126 1147.36 8.08997C1152.52 2.92778 1159.64 0.34668 1168.71 0.34668C1177.65 0.34668 1184.7 2.92778 1189.86 8.08997C1195.03 13.1126 1197.61 19.4608 1197.61 27.1344C1197.61 34.6688 1195.03 40.9467 1189.86 45.9693C1184.7 50.9918 1177.65 53.5037 1168.71 53.5037C1159.64 53.5037 1152.52 50.9918 1147.36 45.9693C1142.33 40.9467 1139.83 34.6688 1139.83 27.1344Z" fill="black" fill-opacity="0.85"/>
<path d="M0 365.406H11.6864V449.648L10.6811 462.993H0V365.406ZM57.6157 428.049V429.382C57.6157 434.383 57.0294 439.019 55.8568 443.296C54.6834 447.533 52.9663 451.217 50.704 454.356C48.4425 457.487 45.6775 459.919 42.4107 461.659C39.1431 463.391 35.3945 464.261 31.1642 464.261C26.8495 464.261 23.0583 463.521 19.7915 462.041C16.5657 460.512 13.8434 458.333 11.6237 455.495C9.40317 452.657 7.62338 449.225 6.28272 445.199C4.98387 441.182 4.08393 436.644 3.58128 431.61V425.763C4.08393 420.68 4.98387 416.127 6.28272 412.103C7.62338 408.079 9.40317 404.648 11.6237 401.811C13.8434 398.93 16.5657 396.749 19.7915 395.267C23.0165 393.742 26.7659 392.979 31.038 392.979C35.3109 392.979 39.1013 393.827 42.4107 395.521C45.7194 397.172 48.4843 399.544 50.704 402.636C52.9663 405.728 54.6834 409.435 55.8568 413.755C57.0294 418.033 57.6157 422.795 57.6157 428.049ZM45.9293 429.382V428.049C45.9293 424.617 45.6148 421.4 44.9867 418.392C44.3586 415.343 43.3533 412.675 41.9708 410.387C40.5883 408.058 38.7667 406.236 36.5044 404.924C34.2429 403.568 31.457 402.891 28.1484 402.891C25.2161 402.891 22.661 403.399 20.4824 404.416C18.3463 405.432 16.5239 406.808 15.0159 408.545C13.508 410.239 12.2727 412.187 11.3092 414.39C10.3875 416.55 9.69672 418.795 9.23589 421.125V436.433C9.90582 439.401 10.9947 442.264 12.5027 445.012C14.0525 447.72 16.1057 449.949 18.6608 451.681C21.2576 453.421 24.4617 454.291 28.2738 454.291C31.4152 454.291 34.0957 453.657 36.3162 452.38C38.5777 451.071 40.4001 449.265 41.7826 446.98C43.2061 444.695 44.254 442.044 44.924 439.043C45.5939 436.034 45.9293 432.814 45.9293 429.382ZM113.912 447.11V394.25H125.599V462.993H114.478L113.912 447.11ZM116.111 432.627L120.949 432.497C120.949 437.067 120.468 441.304 119.504 445.199C118.583 449.054 117.075 452.404 114.98 455.243C112.886 458.081 110.143 460.301 106.75 461.911C103.357 463.48 99.231 464.261 94.3718 464.261C91.0631 464.261 88.0263 463.773 85.2614 462.805C82.539 461.83 80.193 460.325 78.2243 458.292C76.2555 456.259 74.7266 453.608 73.6377 450.347C72.5906 447.086 72.067 443.166 72.067 438.596V394.25H83.6907V438.726C83.6907 441.816 84.026 444.378 84.696 446.411C85.4077 448.403 86.3503 449.989 87.5237 451.176C88.7381 452.323 90.0788 453.12 91.5449 453.592C93.0528 454.055 94.6026 454.291 96.1942 454.291C101.137 454.291 105.053 453.332 107.943 451.429C110.834 449.485 112.907 446.875 114.164 443.614C115.462 440.312 116.111 436.644 116.111 432.627ZM162.418 455.877L181.33 394.25H193.771L166.502 473.605C165.874 475.297 165.036 477.118 163.989 479.07C162.984 481.054 161.685 482.941 160.093 484.722C158.502 486.503 156.575 487.942 154.312 489.04C152.093 490.187 149.433 490.756 146.334 490.756C145.412 490.756 144.239 490.626 142.815 490.374C141.391 490.122 140.385 489.91 139.799 489.739L139.736 480.208C140.071 480.249 140.595 480.298 141.307 480.339C142.061 480.42 142.584 480.461 142.878 480.461C145.517 480.461 147.757 480.103 149.6 479.387C151.444 478.704 152.994 477.541 154.25 475.89C155.549 474.28 156.658 472.06 157.58 469.222L162.418 455.877ZM148.532 394.25L166.188 447.615L169.204 460.008L160.848 464.326L135.841 394.25H148.532ZM248.811 365.406V462.993H237.124V365.406H248.811ZM295.683 464.261C290.949 464.261 286.656 463.456 282.802 461.846C278.991 460.195 275.703 457.886 272.938 454.925C270.215 451.957 268.121 448.444 266.655 444.378C265.189 440.312 264.456 435.864 264.456 431.033V428.366C264.456 422.779 265.272 417.799 266.906 413.437C268.54 409.032 270.76 405.304 273.567 402.255C276.373 399.205 279.557 396.897 283.117 395.33C286.677 393.763 290.363 392.979 294.175 392.979C299.034 392.979 303.223 393.827 306.741 395.521C310.302 397.215 313.213 399.587 315.475 402.636C317.737 405.644 319.412 409.201 320.501 413.31C321.59 417.376 322.135 421.823 322.135 426.65V431.928H271.367V422.332H310.511V421.442C310.344 418.392 309.716 415.427 308.627 412.548C307.579 409.667 305.903 407.295 303.6 405.432C301.296 403.568 298.155 402.636 294.175 402.636C291.537 402.636 289.107 403.208 286.886 404.352C284.667 405.453 282.761 407.105 281.169 409.307C279.577 411.51 278.341 414.199 277.462 417.376C276.582 420.552 276.143 424.218 276.143 428.366V431.033C276.143 434.294 276.582 437.368 277.462 440.247C278.383 443.085 279.703 445.582 281.42 447.745C283.18 449.908 285.295 451.599 287.766 452.827C290.279 454.055 293.128 454.673 296.311 454.673C300.416 454.673 303.893 453.819 306.741 452.128C309.589 450.436 312.082 448.168 314.218 445.329L321.256 450.981C319.789 453.226 317.925 455.365 315.664 457.398C313.401 459.431 310.615 461.09 307.307 462.358C304.039 463.627 300.165 464.261 295.683 464.261ZM375.29 444.76C375.29 443.061 374.913 441.499 374.159 440.06C373.447 438.572 371.96 437.238 369.698 436.059C367.478 434.823 364.127 433.765 359.645 432.879C355.876 432.074 352.462 431.122 349.404 430.017C346.388 428.919 343.812 427.585 341.675 426.015C339.581 424.446 337.968 422.608 336.838 420.489C335.706 418.371 335.141 415.893 335.141 413.056C335.141 410.345 335.727 407.782 336.9 405.369C338.115 402.954 339.812 400.815 341.99 398.952C344.209 397.088 346.87 395.626 349.969 394.567C353.069 393.509 356.525 392.979 360.336 392.979C365.781 392.979 370.431 393.953 374.285 395.902C378.138 397.85 381.092 400.455 383.144 403.716C385.197 406.936 386.223 410.515 386.223 414.453H374.599C374.599 412.548 374.034 410.705 372.902 408.926C371.813 407.105 370.201 405.601 368.065 404.416C365.97 403.229 363.394 402.636 360.336 402.636C357.111 402.636 354.493 403.145 352.483 404.161C350.514 405.135 349.069 406.385 348.147 407.91C347.267 409.435 346.828 411.044 346.828 412.738C346.828 414.009 347.037 415.153 347.456 416.169C347.917 417.143 348.712 418.054 349.844 418.901C350.975 419.706 352.566 420.468 354.619 421.188C356.671 421.908 359.289 422.624 362.473 423.348C368.044 424.617 372.63 426.146 376.232 427.927C379.835 429.699 382.515 431.879 384.275 434.465C386.035 437.051 386.914 440.182 386.914 443.866C386.914 446.875 386.285 449.631 385.029 452.128C383.814 454.625 382.034 456.788 379.688 458.609C377.384 460.39 374.62 461.789 371.394 462.805C368.211 463.773 364.63 464.261 360.65 464.261C354.66 464.261 349.592 463.18 345.445 461.025C341.298 458.861 338.157 456.064 336.021 452.64C333.884 449.208 332.816 445.582 332.816 441.776H344.503C344.67 444.988 345.592 447.558 347.267 449.461C348.943 451.323 350.995 452.657 353.425 453.462C355.854 454.226 358.263 454.608 360.65 454.608C363.834 454.608 366.494 454.185 368.63 453.331C370.808 452.486 372.462 451.323 373.594 449.843C374.725 448.363 375.29 446.663 375.29 444.76ZM441.765 444.76C441.765 443.061 441.389 441.499 440.634 440.06C439.923 438.572 438.436 437.238 436.173 436.059C433.953 434.823 430.602 433.765 426.12 432.879C422.351 432.074 418.937 431.122 415.879 430.017C412.863 428.919 410.287 427.585 408.151 426.015C406.056 424.446 404.444 422.608 403.313 420.489C402.182 418.371 401.616 415.893 401.616 413.056C401.616 410.345 402.203 407.782 403.376 405.369C404.59 402.954 406.287 400.815 408.465 398.952C410.685 397.088 413.345 395.626 416.444 394.567C419.544 393.509 423 392.979 426.812 392.979C432.257 392.979 436.907 393.953 440.76 395.902C444.614 397.85 447.567 400.455 449.619 403.716C451.672 406.936 452.698 410.515 452.698 414.453H441.074C441.074 412.548 440.509 410.705 439.378 408.926C438.288 407.105 436.676 405.601 434.54 404.416C432.446 403.229 429.87 402.636 426.812 402.636C423.586 402.636 420.968 403.145 418.958 404.161C416.989 405.135 415.544 406.385 414.622 407.91C413.743 409.435 413.303 411.044 413.303 412.738C413.303 414.009 413.512 415.153 413.931 416.169C414.392 417.143 415.188 418.054 416.319 418.901C417.45 419.706 419.041 420.468 421.094 421.188C423.146 421.908 425.765 422.624 428.948 423.348C434.519 424.617 439.105 426.146 442.708 427.927C446.31 429.699 448.991 431.879 450.75 434.465C452.51 437.051 453.39 440.182 453.39 443.866C453.39 446.875 452.761 449.631 451.504 452.128C450.289 454.625 448.509 456.788 446.163 458.609C443.86 460.39 441.095 461.789 437.87 462.805C434.686 463.773 431.105 464.261 427.126 464.261C421.136 464.261 416.067 463.18 411.921 461.025C407.774 458.861 404.632 456.064 402.496 452.64C400.36 449.208 399.292 445.582 399.292 441.776H410.978C411.145 444.988 412.067 447.558 413.743 449.461C415.418 451.323 417.471 452.657 419.9 453.462C422.33 454.226 424.738 454.608 427.126 454.608C430.309 454.608 432.969 454.185 435.105 453.331C437.283 452.486 438.938 451.323 440.069 449.843C441.2 448.363 441.765 446.663 441.765 444.76Z" fill="black" fill-opacity="0.85"/>
<path d="M23.3441 588.864L40.7893 533.712H48.4448L46.9388 544.682L29.1803 600.762H21.7128L23.3441 588.864ZM11.609 533.712L26.4815 589.483L27.5482 600.762H19.7047L0 533.712H11.609ZM65.1366 589.047L79.3183 533.712H90.8647L71.1608 600.762H63.38L65.1366 589.047ZM50.1388 533.712L67.2073 587.936L69.1527 600.762H61.7478L43.4873 544.556L41.9813 533.712H50.1388ZM142.824 589.3V554.78C142.824 552.139 142.28 549.846 141.192 547.903C140.146 545.92 138.556 544.389 136.423 543.318C134.289 542.239 131.654 541.708 128.516 541.708C125.588 541.708 123.015 542.2 120.798 543.191C118.622 544.183 116.907 545.484 115.652 547.094C114.438 548.712 113.832 550.441 113.832 552.305H102.223C102.223 549.91 102.85 547.53 104.106 545.174C105.36 542.818 107.16 540.693 109.503 538.797C111.887 536.853 114.732 535.323 118.036 534.204C121.383 533.054 125.107 532.475 129.207 532.475C134.143 532.475 138.493 533.3 142.259 534.95C146.065 536.6 149.036 539.106 151.169 542.446C153.345 545.753 154.433 549.91 154.433 554.907V586.136C154.433 588.373 154.621 590.744 154.997 593.267C155.416 595.781 156.022 597.954 156.817 599.771V600.762H144.706C144.12 599.438 143.661 597.685 143.326 595.496C142.991 593.267 142.824 591.196 142.824 589.3ZM144.832 560.11L144.957 568.169H133.223C129.917 568.169 126.968 568.431 124.374 568.971C121.781 569.47 119.606 570.232 117.848 571.263C116.092 572.294 114.753 573.603 113.832 575.165C112.912 576.696 112.451 578.497 112.451 580.559C112.451 582.669 112.932 584.589 113.895 586.326C114.857 588.055 116.3 589.443 118.225 590.475C120.191 591.466 122.597 591.966 125.441 591.966C128.997 591.966 132.135 591.22 134.854 589.729C137.573 588.246 139.728 586.429 141.318 584.28C142.949 582.13 143.828 580.044 143.953 578.021L148.91 583.534C148.617 585.271 147.823 587.191 146.526 589.3C145.229 591.403 143.493 593.433 141.318 595.369C139.184 597.272 136.632 598.859 133.662 600.144C130.733 601.381 127.428 602 123.747 602C119.145 602 115.108 601.112 111.636 599.335C108.205 597.558 105.528 595.186 103.604 592.212C101.721 589.197 100.78 585.826 100.78 582.106C100.78 578.513 101.491 575.356 102.913 572.627C104.336 569.859 106.385 567.567 109.063 565.75C111.74 563.894 114.961 562.482 118.727 561.538C122.492 560.586 126.696 560.11 131.34 560.11H144.832ZM212.227 582.979C212.227 581.321 211.85 579.798 211.098 578.394C210.386 576.942 208.902 575.641 206.642 574.491C204.425 573.286 201.078 572.254 196.602 571.39C192.837 570.605 189.427 569.677 186.374 568.598C183.362 567.527 180.789 566.226 178.655 564.695C176.563 563.164 174.953 561.372 173.823 559.301C172.693 557.239 172.128 554.82 172.128 552.051C172.128 549.41 172.714 546.911 173.886 544.556C175.099 542.2 176.794 540.114 178.969 538.297C181.186 536.481 183.843 535.053 186.938 534.022C190.034 532.991 193.485 532.475 197.292 532.475C202.73 532.475 207.374 533.419 211.223 535.323C215.072 537.226 218.021 539.765 220.071 542.945C222.121 546.086 223.146 549.577 223.146 553.416H211.537C211.537 551.56 210.972 549.759 209.842 548.03C208.755 546.253 207.144 544.786 205.011 543.627C202.919 542.469 200.346 541.89 197.292 541.89C194.071 541.89 191.456 542.39 189.448 543.382C187.482 544.326 186.039 545.547 185.118 547.038C184.239 548.522 183.801 550.092 183.801 551.742C183.801 552.987 184.01 554.098 184.428 555.089C184.888 556.041 185.683 556.93 186.813 557.755C187.942 558.54 189.532 559.285 191.582 559.983C193.632 560.689 196.246 561.387 199.426 562.093C204.99 563.331 209.571 564.822 213.168 566.559C216.766 568.288 219.443 570.414 221.201 572.937C222.958 575.459 223.836 578.513 223.836 582.106C223.836 585.041 223.209 587.73 221.954 590.165C220.74 592.6 218.963 594.71 216.62 596.487C214.319 598.224 211.558 599.589 208.336 600.58C205.157 601.524 201.58 602 197.606 602C191.623 602 186.562 600.945 182.42 598.843C178.278 596.733 175.141 594.004 173.007 590.665C170.874 587.318 169.807 583.78 169.807 580.068H181.479C181.646 583.201 182.566 585.707 184.239 587.563C185.913 589.38 187.963 590.681 190.39 591.466C192.815 592.212 195.221 592.584 197.606 592.584C200.785 592.584 203.442 592.172 205.575 591.339C207.751 590.514 209.403 589.38 210.533 587.936C211.662 586.493 212.227 584.835 212.227 582.979ZM267.511 533.712V542.509H230.801V533.712H267.511ZM243.227 517.412H254.836V584.153C254.836 586.429 255.191 588.142 255.902 589.3C256.614 590.459 257.534 591.22 258.664 591.593C259.793 591.966 261.006 592.148 262.303 592.148C263.265 592.148 264.269 592.069 265.315 591.902C266.403 591.696 267.219 591.53 267.763 591.403L267.825 600.762C266.905 601.048 265.692 601.318 264.186 601.572C262.722 601.857 260.943 602 258.852 602C256.007 602 253.392 601.445 251.007 600.326C248.623 599.216 246.72 597.352 245.297 594.75C243.917 592.109 243.227 588.555 243.227 584.089V517.412ZM309.305 602C304.577 602 300.289 601.215 296.44 599.644C292.633 598.034 289.349 595.781 286.588 592.894C283.869 589.999 281.777 586.572 280.313 582.606C278.849 578.64 278.116 574.301 278.116 569.589V566.988C278.116 561.538 278.932 556.684 280.564 552.424C282.196 548.133 284.413 544.492 287.216 541.518C290.018 538.543 293.198 536.29 296.753 534.767C300.31 533.236 303.991 532.475 307.798 532.475C312.651 532.475 316.834 533.3 320.349 534.95C323.905 536.6 326.812 538.916 329.071 541.89C331.33 544.825 333.004 548.292 334.091 552.305C335.179 556.271 335.723 560.61 335.723 565.314V570.462H285.019V561.102H324.114V560.237C323.947 557.263 323.318 554.368 322.231 551.56C321.185 548.752 319.512 546.435 317.211 544.619C314.91 542.803 311.772 541.89 307.798 541.89C305.162 541.89 302.736 542.446 300.519 543.564C298.302 544.635 296.398 546.253 294.809 548.395C293.218 550.544 291.985 553.17 291.106 556.271C290.228 559.365 289.789 562.942 289.789 566.988V569.589C289.789 572.77 290.228 575.768 291.106 578.576C292.026 581.345 293.345 583.78 295.059 585.89C296.817 588 298.929 589.65 301.398 590.847C303.908 592.045 306.752 592.648 309.932 592.648C314.032 592.648 317.504 591.815 320.349 590.165C323.193 588.515 325.682 586.302 327.816 583.534L334.844 589.047C333.38 591.236 331.518 593.322 329.259 595.305C327 597.288 324.218 598.906 320.914 600.144C317.65 601.381 313.78 602 309.305 602ZM393.768 505.577V600.762H382.096V505.577H393.768ZM440.581 602C435.854 602 431.566 601.215 427.717 599.644C423.91 598.034 420.626 595.781 417.865 592.894C415.145 589.999 413.054 586.572 411.589 582.606C410.125 578.64 409.393 574.301 409.393 569.589V566.988C409.393 561.538 410.209 556.684 411.841 552.424C413.472 548.133 415.689 544.492 418.492 541.518C421.296 538.543 424.475 536.29 428.031 534.767C431.587 533.236 435.268 532.475 439.075 532.475C443.928 532.475 448.111 533.3 451.625 534.95C455.181 536.6 458.089 538.916 460.348 541.89C462.607 544.825 464.28 548.292 465.368 552.305C466.456 556.271 467 560.61 467 565.314V570.462H416.296V561.102H455.39V560.237C455.223 557.263 454.596 554.368 453.508 551.56C452.462 548.752 450.788 546.435 448.488 544.619C446.187 542.803 443.049 541.89 439.075 541.89C436.44 541.89 434.013 542.446 431.796 543.564C429.578 544.635 427.675 546.253 426.085 548.395C424.496 550.544 423.261 553.17 422.383 556.271C421.504 559.365 421.065 562.942 421.065 566.988V569.589C421.065 572.77 421.504 575.768 422.383 578.576C423.304 581.345 424.621 583.78 426.337 585.89C428.093 588 430.206 589.65 432.674 590.847C435.184 592.045 438.029 592.648 441.208 592.648C445.308 592.648 448.78 591.815 451.625 590.165C454.47 588.515 456.96 586.302 459.093 583.534L466.121 589.047C464.657 591.236 462.795 593.322 460.536 595.305C458.277 597.288 455.495 598.906 452.19 600.144C448.927 601.381 445.057 602 440.581 602ZM520.087 582.979C520.087 581.321 519.711 579.798 518.958 578.394C518.247 576.942 516.762 575.641 514.502 574.491C512.286 573.286 508.939 572.254 504.462 571.39C500.697 570.605 497.288 569.677 494.234 568.598C491.222 567.527 488.649 566.226 486.515 564.695C484.423 563.164 482.813 561.372 481.684 559.301C480.554 557.239 479.99 554.82 479.99 552.051C479.99 549.41 480.575 546.911 481.746 544.556C482.959 542.2 484.654 540.114 486.829 538.297C489.047 536.481 491.703 535.053 494.799 534.022C497.894 532.991 501.346 532.475 505.153 532.475C510.591 532.475 515.235 533.419 519.083 535.323C522.932 537.226 525.882 539.765 527.932 542.945C529.981 546.086 531.006 549.577 531.006 553.416H519.397C519.397 551.56 518.833 549.759 517.703 548.03C516.615 546.253 515.004 544.786 512.871 543.627C510.78 542.469 508.207 541.89 505.153 541.89C501.931 541.89 499.317 542.39 497.309 543.382C495.342 544.326 493.899 545.547 492.978 547.038C492.101 548.522 491.661 550.092 491.661 551.742C491.661 552.987 491.87 554.098 492.289 555.089C492.749 556.041 493.543 556.93 494.673 557.755C495.803 558.54 497.392 559.285 499.442 559.983C501.492 560.689 504.107 561.387 507.286 562.093C512.85 563.331 517.431 564.822 521.029 566.559C524.626 568.288 527.304 570.414 529.061 572.937C530.818 575.459 531.696 578.513 531.696 582.106C531.696 585.041 531.069 587.73 529.814 590.165C528.601 592.6 526.823 594.71 524.48 596.487C522.18 598.224 519.418 599.589 516.197 600.58C513.017 601.524 509.441 602 505.466 602C499.484 602 494.422 600.945 490.28 598.843C486.139 596.733 483.002 594.004 480.868 590.665C478.734 587.318 477.667 583.78 477.667 580.068H489.339C489.506 583.201 490.427 585.707 492.101 587.563C493.774 589.38 495.824 590.681 498.25 591.466C500.677 592.212 503.082 592.584 505.466 592.584C508.646 592.584 511.302 592.172 513.436 591.339C515.611 590.514 517.264 589.38 518.393 587.936C519.523 586.493 520.087 584.835 520.087 582.979ZM586.479 582.979C586.479 581.321 586.103 579.798 585.349 578.394C584.638 576.942 583.153 575.641 580.894 574.491C578.677 573.286 575.33 572.254 570.853 571.39C567.089 570.605 563.679 569.677 560.625 568.598C557.613 567.527 555.04 566.226 552.907 564.695C550.815 563.164 549.204 561.372 548.075 559.301C546.945 557.239 546.381 554.82 546.381 552.051C546.381 549.41 546.966 546.911 548.137 544.556C549.351 542.2 551.045 540.114 553.22 538.297C555.438 536.481 558.094 535.053 561.19 534.022C564.285 532.991 567.737 532.475 571.544 532.475C576.983 532.475 581.626 533.419 585.475 535.323C589.324 537.226 592.273 539.765 594.323 542.945C596.373 546.086 597.398 549.577 597.398 553.416H585.789C585.789 551.56 585.224 549.759 584.095 548.03C583.007 546.253 581.397 544.786 579.262 543.627C577.171 542.469 574.598 541.89 571.544 541.89C568.322 541.89 565.708 542.39 563.7 543.382C561.734 544.326 560.29 545.547 559.371 547.038C558.492 548.522 558.052 550.092 558.052 551.742C558.052 552.987 558.261 554.098 558.68 555.089C559.14 556.041 559.935 556.93 561.065 557.755C562.194 558.54 563.783 559.285 565.833 559.983C567.884 560.689 570.498 561.387 573.678 562.093C579.241 563.331 583.822 564.822 587.421 566.559C591.018 568.288 593.696 570.414 595.453 572.937C597.21 575.459 598.088 578.513 598.088 582.106C598.088 585.041 597.461 587.73 596.206 590.165C594.993 592.6 593.214 594.71 590.871 596.487C588.571 598.224 585.809 599.589 582.589 600.58C579.409 601.524 575.832 602 571.857 602C565.876 602 560.813 600.945 556.672 598.843C552.53 596.733 549.393 594.004 547.26 590.665C545.125 587.318 544.059 583.78 544.059 580.068H555.73C555.898 583.201 556.819 585.707 558.492 587.563C560.165 589.38 562.215 590.681 564.641 591.466C567.068 592.212 569.473 592.584 571.857 592.584C575.037 592.584 577.694 592.172 579.827 591.339C582.003 590.514 583.655 589.38 584.785 587.936C585.914 586.493 586.479 584.835 586.479 582.979Z" fill="black" fill-opacity="0.85"/>
</g>
<defs>
<clipPath id="clip0_21_13">
<rect width="1198" height="602" fill="white"/>
</clipPath>
</defs>
</svg>
