<svg width="698" height="188" viewBox="0 0 698 188" fill="none" xmlns="http://www.w3.org/2000/svg">
<path d="M67.25 113.625H18.625V94H67.25C76.6667 94 84.2917 92.5 90.125 89.5C95.9583 86.5 100.208 82.3333 102.875 77C105.625 71.6667 107 65.5833 107 58.75C107 52.5 105.625 46.625 102.875 41.125C100.208 35.625 95.9583 31.2083 90.125 27.875C84.2917 24.4583 76.6667 22.75 67.25 22.75H24.25V185H0.125V3H67.25C81 3 92.625 5.375 102.125 10.125C111.625 14.875 118.833 21.4583 123.75 29.875C128.667 38.2083 131.125 47.75 131.125 58.5C131.125 70.1667 128.667 80.125 123.75 88.375C118.833 96.625 111.625 102.917 102.125 107.25C92.625 111.5 81 113.625 67.25 113.625ZM236.375 161.875V92.25C236.375 86.9167 235.292 82.2917 233.125 78.375C231.042 74.375 227.875 71.2917 223.625 69.125C219.375 66.9583 214.125 65.875 207.875 65.875C202.042 65.875 196.917 66.875 192.5 68.875C188.167 70.875 184.75 73.5 182.25 76.75C179.833 80 178.625 83.5 178.625 87.25H155.5C155.5 82.4167 156.75 77.625 159.25 72.875C161.75 68.125 165.333 63.8333 170 60C174.75 56.0833 180.417 53 187 50.75C193.667 48.4167 201.083 47.25 209.25 47.25C219.083 47.25 227.75 48.9167 235.25 52.25C242.833 55.5833 248.75 60.625 253 67.375C257.333 74.0417 259.5 82.4167 259.5 92.5V155.5C259.5 160 259.875 164.792 260.625 169.875C261.458 174.958 262.667 179.333 264.25 183V185H240.125C238.958 182.333 238.042 178.792 237.375 174.375C236.708 169.875 236.375 165.708 236.375 161.875ZM240.375 103L240.625 119.25H217.25C210.667 119.25 204.792 119.792 199.625 120.875C194.458 121.875 190.125 123.417 186.625 125.5C183.125 127.583 180.458 130.208 178.625 133.375C176.792 136.458 175.875 140.083 175.875 144.25C175.875 148.5 176.833 152.375 178.75 155.875C180.667 159.375 183.542 162.167 187.375 164.25C191.292 166.25 196.083 167.25 201.75 167.25C208.833 167.25 215.083 165.75 220.5 162.75C225.917 159.75 230.208 156.083 233.375 151.75C236.625 147.417 238.375 143.208 238.625 139.125L248.5 150.25C247.917 153.75 246.333 157.625 243.75 161.875C241.167 166.125 237.708 170.208 233.375 174.125C229.125 177.958 224.042 181.167 218.125 183.75C212.292 186.25 205.708 187.5 198.375 187.5C189.208 187.5 181.167 185.708 174.25 182.125C167.417 178.542 162.083 173.75 158.25 167.75C154.5 161.667 152.625 154.875 152.625 147.375C152.625 140.125 154.042 133.75 156.875 128.25C159.708 122.667 163.792 118.042 169.125 114.375C174.458 110.625 180.875 107.792 188.375 105.875C195.875 103.958 204.25 103 213.5 103H240.375ZM319 78.625V185H295.875V49.75H317.75L319 78.625ZM313.5 112.25L303.875 111.875C303.958 102.625 305.333 94.0833 308 86.25C310.667 78.3333 314.417 71.4583 319.25 65.625C324.083 59.7917 329.833 55.2917 336.5 52.125C343.25 48.875 350.708 47.25 358.875 47.25C365.542 47.25 371.542 48.1667 376.875 50C382.208 51.75 386.75 54.5833 390.5 58.5C394.333 62.4167 397.25 67.5 399.25 73.75C401.25 79.9167 402.25 87.4583 402.25 96.375V185H379V96.125C379 89.0417 377.958 83.375 375.875 79.125C373.792 74.7917 370.75 71.6667 366.75 69.75C362.75 67.75 357.833 66.75 352 66.75C346.25 66.75 341 67.9583 336.25 70.375C331.583 72.7917 327.542 76.125 324.125 80.375C320.792 84.625 318.167 89.5 316.25 95C314.417 100.417 313.5 106.167 313.5 112.25ZM494 49.75V67.5H420.875V49.75H494ZM445.625 16.875H468.75V151.5C468.75 156.083 469.458 159.542 470.875 161.875C472.292 164.208 474.125 165.75 476.375 166.5C478.625 167.25 481.042 167.625 483.625 167.625C485.542 167.625 487.542 167.458 489.625 167.125C491.792 166.708 493.417 166.375 494.5 166.125L494.625 185C492.792 185.583 490.375 186.125 487.375 186.625C484.458 187.208 480.917 187.5 476.75 187.5C471.083 187.5 465.875 186.375 461.125 184.125C456.375 181.875 452.583 178.125 449.75 172.875C447 167.542 445.625 160.375 445.625 151.375V16.875ZM544.25 71V185H521.125V49.75H543.625L544.25 71ZM586.5 49L586.375 70.5C584.458 70.0833 582.625 69.8333 580.875 69.75C579.208 69.5833 577.292 69.5 575.125 69.5C569.792 69.5 565.083 70.3333 561 72C556.917 73.6667 553.458 76 550.625 79C547.792 82 545.542 85.5833 543.875 89.75C542.292 93.8333 541.25 98.3333 540.75 103.25L534.25 107C534.25 98.8333 535.042 91.1667 536.625 84C538.292 76.8333 540.833 70.5 544.25 65C547.667 59.4167 552 55.0833 557.25 52C562.583 48.8333 568.917 47.25 576.25 47.25C577.917 47.25 579.833 47.4583 582 47.875C584.167 48.2083 585.667 48.5833 586.5 49ZM633 49.75V185H609.75V49.75H633ZM608 13.875C608 10.125 609.125 6.95833 611.375 4.375C613.708 1.79167 617.125 0.5 621.625 0.5C626.042 0.5 629.417 1.79167 631.75 4.375C634.167 6.95833 635.375 10.125 635.375 13.875C635.375 17.4583 634.167 20.5417 631.75 23.125C629.417 25.625 626.042 26.875 621.625 26.875C617.125 26.875 613.708 25.625 611.375 23.125C609.125 20.5417 608 17.4583 608 13.875ZM695.25 49.75V185H672V49.75H695.25ZM670.25 13.875C670.25 10.125 671.375 6.95833 673.625 4.375C675.958 1.79167 679.375 0.5 683.875 0.5C688.292 0.5 691.667 1.79167 694 4.375C696.417 6.95833 697.625 10.125 697.625 13.875C697.625 17.4583 696.417 20.5417 694 23.125C691.667 25.625 688.292 26.875 683.875 26.875C679.375 26.875 675.958 25.625 673.625 23.125C671.375 20.5417 670.25 17.4583 670.25 13.875Z" fill="#1A1A1A" fill-opacity="0.85"/>
</svg>
