<svg width="249" height="123" viewBox="0 0 249 123" fill="none" xmlns="http://www.w3.org/2000/svg">
<g clip-path="url(#clip0_21_13)">
<path d="M24.0049 41.5609H7.55312V32.9225H24.0049C26.8699 32.9225 29.185 32.4596 30.9504 31.5336C32.7156 30.6074 34.0035 29.3342 34.8139 27.7137C35.653 26.0641 36.0725 24.1829 36.0725 22.0705C36.0725 20.0736 35.653 18.2071 34.8139 16.4707C34.0035 14.7053 32.7156 13.2874 30.9504 12.2166C29.185 11.146 26.8699 10.6105 24.0049 10.6105H10.8956V65.1318H0V1.92883H24.0049C28.8956 1.92883 33.0485 2.797 36.4632 4.53344C39.9069 6.24081 42.526 8.61376 44.3202 11.6523C46.1146 14.6621 47.0115 18.1058 47.0115 21.9835C47.0115 26.0641 46.1146 29.5656 44.3202 32.4886C42.526 35.4113 39.9069 37.6542 36.4632 39.217C33.0485 40.7795 28.8956 41.5609 24.0049 41.5609ZM81.6951 55.7121V33.3132C81.6951 31.6349 81.3912 30.1879 80.7836 28.9723C80.1758 27.7569 79.2498 26.8165 78.0054 26.1509C76.7898 25.4853 75.2561 25.1524 73.4041 25.1524C71.6967 25.1524 70.2208 25.4418 68.9764 26.0206C67.732 26.5993 66.7625 27.3807 66.0679 28.3647C65.3735 29.3487 65.0261 30.4628 65.0261 31.7072H54.6081C54.6081 29.855 55.0566 28.0608 55.9538 26.3245C56.8508 24.5881 58.1532 23.0398 59.8605 21.6799C61.5679 20.3197 63.6082 19.2489 65.9811 18.4675C68.3541 17.6861 71.0166 17.2954 73.9684 17.2954C77.4989 17.2954 80.6243 17.8887 83.3446 19.0753C86.0938 20.2616 88.2499 22.056 89.8124 24.458C91.4042 26.831 92.1999 29.8117 92.1999 33.4V54.2796C92.1999 56.4212 92.3447 58.3456 92.6341 60.053C92.9525 61.7314 93.401 63.1928 93.9798 64.4372V65.1318H83.2578C82.7658 64.0032 82.3751 62.5708 82.0857 60.8344C81.8254 59.069 81.6951 57.3616 81.6951 55.7121ZM83.2143 36.5689L83.3011 43.0369H75.7916C73.8526 43.0369 72.1452 43.225 70.6692 43.6012C69.1935 43.9484 67.9634 44.4694 66.9796 45.1637C65.9956 45.8583 65.2577 46.6975 64.7657 47.6815C64.2738 48.6655 64.0279 49.7796 64.0279 51.0239C64.0279 52.2683 64.3173 53.4114 64.8961 54.4532C65.4746 55.4662 66.314 56.2621 67.4136 56.8409C68.5422 57.4197 69.9023 57.7088 71.4941 57.7088C73.6355 57.7088 75.5022 57.2748 77.0937 56.4067C78.7143 55.5095 79.9877 54.4244 80.9137 53.151C81.8399 51.8489 82.3319 50.6187 82.3896 49.4614L85.7756 54.106C85.4282 55.2926 84.8349 56.5657 83.9957 57.9259C83.1565 59.2861 82.0567 60.5883 80.6968 61.8327C79.3654 63.0483 77.7593 64.0465 75.8784 64.8279C74.0262 65.6093 71.8848 66 69.4539 66C66.3863 66 63.6517 65.3922 61.2497 64.1768C58.8478 62.9325 56.9666 61.2684 55.6064 59.1848C54.2464 57.0722 53.5663 54.6848 53.5663 52.0224C53.5663 49.5337 54.0293 47.3343 54.9553 45.4244C55.9103 43.4854 57.2995 41.8648 59.1226 40.5624C60.9746 39.2602 63.232 38.2762 65.8943 37.6107C68.5567 36.9163 71.5954 36.5689 75.0102 36.5689H83.2143ZM113.514 28.1911V65.1318H103.052V18.1636H112.906L113.514 28.1911ZM111.647 39.9113L108.261 39.868C108.29 36.5399 108.753 33.4868 109.65 30.7087C110.576 27.9305 111.85 25.5431 113.47 23.5463C115.12 21.5495 117.088 20.0158 119.374 18.945C121.66 17.8454 124.207 17.2954 127.014 17.2954C129.271 17.2954 131.311 17.6138 133.134 18.2504C134.986 18.8582 136.564 19.8567 137.866 21.2456C139.197 22.6348 140.21 24.4435 140.904 26.6716C141.599 28.8712 141.946 31.5769 141.946 34.7892V65.1318H131.441V34.7457C131.441 32.4886 131.109 30.7087 130.443 29.4065C129.806 28.0753 128.866 27.1349 127.622 26.5848C126.406 26.0061 124.887 25.7167 123.063 25.7167C121.269 25.7167 119.663 26.0931 118.245 26.8455C116.827 27.5978 115.626 28.6251 114.642 29.9273C113.687 31.2297 112.949 32.7344 112.428 34.4418C111.908 36.1494 111.647 37.9726 111.647 39.9113ZM174.156 18.1636V25.8037H147.676V18.1636H174.156ZM155.316 6.66028H165.778V52.1525C165.778 53.5995 165.98 54.7138 166.385 55.4952C166.82 56.2476 167.413 56.7538 168.165 57.0145C168.918 57.2748 169.8 57.4052 170.813 57.4052C171.536 57.4052 172.231 57.3616 172.897 57.2748C173.562 57.1881 174.098 57.1013 174.503 57.0145L174.546 65.0015C173.678 65.2621 172.665 65.4935 171.508 65.6961C170.379 65.8987 169.077 66 167.601 66C165.199 66 163.072 65.5803 161.22 64.7411C159.368 63.8729 157.921 62.4695 156.879 60.5305C155.837 58.5915 155.316 56.016 155.316 52.8038V6.66028ZM192.734 27.1058V65.1318H182.273V18.1636H192.257L192.734 27.1058ZM207.103 17.8597L207.016 27.5833C206.379 27.4675 205.685 27.3807 204.932 27.323C204.209 27.2649 203.485 27.2362 202.762 27.2362C200.968 27.2362 199.391 27.4965 198.03 28.0173C196.67 28.5093 195.527 29.2329 194.601 30.1879C193.704 31.1139 193.009 32.2425 192.517 33.5736C192.025 34.905 191.736 36.3953 191.649 38.0449L189.262 38.2185C189.262 35.2667 189.551 32.5318 190.13 30.0143C190.709 27.4965 191.577 25.2827 192.734 23.3727C193.921 21.4627 195.397 19.9723 197.162 18.9017C198.956 17.8309 201.026 17.2954 203.37 17.2954C204.006 17.2954 204.686 17.3534 205.41 17.4692C206.162 17.5848 206.726 17.7151 207.103 17.8597ZM224.857 18.1636V65.1318H214.352V18.1636H224.857ZM213.657 5.8356C213.657 4.24395 214.178 2.92721 215.22 1.88541C216.291 0.814669 217.767 0.279297 219.648 0.279297C221.5 0.279297 222.961 0.814669 224.032 1.88541C225.103 2.92721 225.638 4.24395 225.638 5.8356C225.638 7.39839 225.103 8.70055 224.032 9.74233C222.961 10.7841 221.5 11.3051 219.648 11.3051C217.767 11.3051 216.291 10.7841 215.22 9.74233C214.178 8.70055 213.657 7.39839 213.657 5.8356ZM247.516 18.1636V65.1318H237.012V18.1636H247.516ZM236.317 5.8356C236.317 4.24395 236.837 2.92721 237.88 1.88541C238.949 0.814669 240.425 0.279297 242.306 0.279297C244.159 0.279297 245.621 0.814669 246.69 1.88541C247.762 2.92721 248.298 4.24395 248.298 5.8356C248.298 7.39839 247.762 8.70055 246.69 9.74233C245.621 10.7841 244.159 11.3051 242.306 11.3051C240.425 11.3051 238.949 10.7841 237.88 9.74233C236.837 8.70055 236.317 7.39839 236.317 5.8356Z" fill="black" fill-opacity="0.85"/>
<path d="M0 76H2.42291V93.4733L2.21448 96.2413H0V76ZM11.9453 88.9933V89.2699C11.9453 90.3072 11.8237 91.2687 11.5806 92.156C11.3374 93.0348 10.9814 93.7989 10.5123 94.45C10.0435 95.0994 9.4702 95.6037 8.7929 95.9647C8.11543 96.324 7.33825 96.5045 6.4612 96.5045C5.56663 96.5045 4.78062 96.351 4.10332 96.044C3.43452 95.7269 2.87011 95.2748 2.4099 94.6861C1.94953 94.0974 1.58053 93.3856 1.30258 92.5507C1.03329 91.7174 0.84671 90.7762 0.742497 89.7321V88.5193C0.84671 87.4649 1.03329 86.5204 1.30258 85.6858C1.58053 84.8512 1.94953 84.1395 2.4099 83.551C2.87011 82.9536 3.43452 82.5012 4.10332 82.1937C4.77195 81.8774 5.54929 81.7192 6.43502 81.7192C7.32091 81.7192 8.10676 81.895 8.7929 82.2463C9.47887 82.5889 10.0521 83.0809 10.5123 83.7222C10.9814 84.3636 11.3374 85.1324 11.5806 86.0284C11.8237 86.9158 11.9453 87.9036 11.9453 88.9933ZM9.52239 89.2699V88.9933C9.52239 88.2814 9.45719 87.6141 9.32697 86.9904C9.19674 86.3578 8.98832 85.8044 8.70169 85.3299C8.41506 84.8468 8.03739 84.469 7.56835 84.1967C7.09948 83.9155 6.52189 83.775 5.83592 83.775C5.22798 83.775 4.69825 83.8805 4.24655 84.0913C3.80369 84.3021 3.42585 84.5876 3.11321 84.9479C2.80057 85.2992 2.54446 85.7034 2.34471 86.1601C2.15362 86.6083 2.01039 87.0739 1.91485 87.5571V90.7323C2.05375 91.348 2.27951 91.9417 2.59215 92.5119C2.91346 93.0736 3.33915 93.5357 3.86888 93.895C4.40729 94.256 5.07158 94.4365 5.86193 94.4365C6.51322 94.4365 7.06897 94.3049 7.52934 94.0401C7.99821 93.7685 8.37605 93.3941 8.66267 92.9201C8.9578 92.4461 9.17507 91.8962 9.31396 91.2738C9.45286 90.6497 9.52239 89.9817 9.52239 89.2699ZM23.6171 92.9471V81.9828H26.04V96.2413H23.7343L23.6171 92.9471ZM24.073 89.9429L25.0761 89.9159C25.0761 90.8639 24.9762 91.7427 24.7765 92.5507C24.5854 93.3502 24.2728 94.0451 23.8386 94.6338C23.4044 95.2225 22.8356 95.683 22.1321 96.017C21.4287 96.3425 20.5733 96.5045 19.5658 96.5045C18.8799 96.5045 18.2503 96.4033 17.677 96.2025C17.1126 96.0001 16.6262 95.6881 16.218 95.2664C15.8098 94.8447 15.4929 94.2948 15.2671 93.6184C15.05 92.942 14.9415 92.129 14.9415 91.181V81.9828H17.3514V91.208C17.3514 91.849 17.4209 92.3803 17.5598 92.802C17.7073 93.2153 17.9028 93.5442 18.146 93.7904C18.3978 94.0283 18.6758 94.1936 18.9797 94.2914C19.2924 94.3876 19.6137 94.4365 19.9437 94.4365C20.9685 94.4365 21.7803 94.2374 22.3796 93.8427C22.9788 93.4396 23.4087 92.8981 23.6693 92.2217C23.9384 91.5369 24.073 90.7762 24.073 89.9429ZM33.6738 94.7654L37.5947 81.9828H40.174L34.5205 98.4426C34.3902 98.7934 34.2165 99.1713 33.9994 99.5761C33.791 99.9877 33.5217 100.379 33.1917 100.748C32.8617 101.118 32.4622 101.416 31.9932 101.644C31.533 101.882 30.9816 102 30.3389 102C30.1479 102 29.9046 101.973 29.6095 101.921C29.3142 101.868 29.1057 101.825 28.9842 101.789L28.9712 99.8122C29.0405 99.8207 29.1491 99.8308 29.2968 99.8392C29.4531 99.8561 29.5616 99.8645 29.6225 99.8645C30.1695 99.8645 30.6341 99.7903 31.0162 99.6419C31.3984 99.5002 31.7197 99.259 31.9802 98.9166C32.2495 98.5826 32.4796 98.1221 32.6706 97.5334L33.6738 94.7654ZM30.7948 81.9828L34.4553 93.0516L35.0805 95.6223L33.3481 96.518L28.1635 81.9828H30.7948ZM51.5852 76V96.2413H49.1623V76H51.5852ZM61.3032 96.5045C60.3217 96.5045 59.4317 96.3375 58.6327 96.0035C57.8425 95.6611 57.1607 95.182 56.5874 94.5681C56.023 93.9524 55.5888 93.2237 55.2848 92.3803C54.9809 91.5369 54.829 90.6142 54.829 89.6123V89.059C54.829 87.9002 54.9982 86.8674 55.3369 85.9624C55.6757 85.0489 56.1359 84.2757 56.7178 83.6431C57.2996 83.0106 57.9597 82.5319 58.6978 82.2068C59.436 81.8818 60.2002 81.7192 60.9905 81.7192C61.9978 81.7192 62.8664 81.895 63.5959 82.2463C64.334 82.5978 64.9376 83.0897 65.4065 83.7222C65.8755 84.346 66.2229 85.084 66.4486 85.9361C66.6744 86.7795 66.7873 87.702 66.7873 88.7031V89.7978H56.2618V87.8074H64.3774V87.6229C64.3427 86.9904 64.2125 86.3754 63.9867 85.7781C63.7694 85.1806 63.4221 84.6886 62.9446 84.3021C62.4668 83.9155 61.8156 83.7222 60.9905 83.7222C60.4435 83.7222 59.9397 83.8408 59.4794 84.0781C59.0192 84.3065 58.624 84.6491 58.294 85.1059C57.964 85.5628 57.7077 86.1207 57.5255 86.7795C57.3431 87.4384 57.2519 88.1988 57.2519 89.059V89.6123C57.2519 90.2887 57.3431 90.9263 57.5255 91.5234C57.7164 92.1121 57.99 92.6299 58.346 93.0786C58.7109 93.5273 59.1494 93.8782 59.6618 94.1329C60.1828 94.3876 60.7734 94.5158 61.4334 94.5158C62.2844 94.5158 63.0053 94.3387 63.5959 93.9878C64.1863 93.637 64.703 93.1663 65.146 92.5777L66.605 93.75C66.3011 94.2155 65.9145 94.6591 65.4457 95.0808C64.9766 95.5025 64.399 95.8466 63.7131 96.1098C63.0356 96.3729 62.2324 96.5045 61.3032 96.5045ZM77.8078 92.4596C77.8078 92.107 77.7296 91.7832 77.5734 91.4846C77.4257 91.1759 77.1175 90.8993 76.6485 90.6547C76.1883 90.3983 75.4935 90.1791 74.5642 89.9952C73.7827 89.8282 73.0749 89.6309 72.4409 89.4015C71.8157 89.1737 71.2816 88.8971 70.8386 88.5716C70.4044 88.246 70.0701 87.8648 69.8356 87.4252C69.601 86.986 69.4838 86.472 69.4838 85.8835C69.4838 85.3211 69.6054 84.7896 69.8486 84.289C70.1004 83.7882 70.4522 83.3446 70.9038 82.958C71.364 82.5713 71.9155 82.2682 72.5582 82.0486C73.2008 81.829 73.9173 81.7192 74.7074 81.7192C75.8364 81.7192 76.8004 81.9213 77.5994 82.3254C78.3984 82.7296 79.0107 83.2698 79.4362 83.9462C79.8617 84.614 80.0745 85.3564 80.0745 86.1733H77.6646C77.6646 85.7781 77.5474 85.3959 77.3128 85.027C77.087 84.6491 76.7527 84.3372 76.3098 84.0913C75.8756 83.8452 75.3414 83.7222 74.7074 83.7222C74.0388 83.7222 73.4961 83.8277 73.0792 84.0385C72.671 84.2406 72.3714 84.4998 72.1803 84.8161C71.9979 85.1324 71.9069 85.4662 71.9069 85.8175C71.9069 86.0812 71.9502 86.3184 72.0371 86.5292C72.1326 86.7313 72.2975 86.9202 72.5321 87.0958C72.7666 87.2628 73.0966 87.4208 73.5221 87.5703C73.9476 87.7196 74.4903 87.8682 75.1505 88.0183C76.3055 88.2814 77.2564 88.5986 78.0032 88.968C78.7501 89.3357 79.3058 89.7877 79.6706 90.3241C80.0355 90.8605 80.2177 91.5099 80.2177 92.274C80.2177 92.8981 80.0875 93.47 79.827 93.9878C79.5751 94.5056 79.2061 94.9543 78.7197 95.3322C78.242 95.7016 77.6689 95.9917 77.0001 96.2025C76.3402 96.4033 75.5977 96.5045 74.7726 96.5045C73.5308 96.5045 72.48 96.2801 71.6202 95.8331C70.7604 95.3845 70.1091 94.8042 69.6662 94.0941C69.2233 93.3822 69.0019 92.6299 69.0019 91.8405H71.4248C71.4595 92.5068 71.6506 93.0398 71.9979 93.4345C72.3454 93.8208 72.7709 94.0974 73.2746 94.2644C73.7782 94.423 74.2776 94.5023 74.7726 94.5023C75.4326 94.5023 75.9842 94.4146 76.427 94.2374C76.8786 94.062 77.2216 93.8208 77.4562 93.5138C77.6906 93.2068 77.8078 92.8543 77.8078 92.4596ZM91.5899 92.4596C91.5899 92.107 91.5119 91.7832 91.3555 91.4846C91.2079 91.1759 90.8996 90.8993 90.4306 90.6547C89.9704 90.3983 89.2756 90.1791 88.3463 89.9952C87.5648 89.8282 86.857 89.6309 86.223 89.4015C85.5978 89.1737 85.0637 88.8971 84.6208 88.5716C84.1865 88.246 83.8522 87.8648 83.6177 87.4252C83.3833 86.986 83.2659 86.472 83.2659 85.8835C83.2659 85.3211 83.3876 84.7896 83.6307 84.289C83.8825 83.7882 84.2343 83.3446 84.6859 82.958C85.1462 82.5713 85.6976 82.2682 86.3403 82.0486C86.9829 81.829 87.6994 81.7192 88.4897 81.7192C89.6186 81.7192 90.5826 81.9213 91.3815 82.3254C92.1805 82.7296 92.7928 83.2698 93.2183 83.9462C93.6438 84.614 93.8566 85.3564 93.8566 86.1733H91.4467C91.4467 85.7781 91.3295 85.3959 91.095 85.027C90.8691 84.6491 90.5348 84.3372 90.0919 84.0913C89.6577 83.8452 89.1237 83.7222 88.4897 83.7222C87.8209 83.7222 87.2782 83.8277 86.8613 84.0385C86.4531 84.2406 86.1535 84.4998 85.9624 84.8161C85.7802 85.1324 85.689 85.4662 85.689 85.8175C85.689 86.0812 85.7323 86.3184 85.8192 86.5292C85.9147 86.7313 86.0798 86.9202 86.3142 87.0958C86.5487 87.2628 86.8787 87.4208 87.3042 87.5703C87.7297 87.7196 88.2726 87.8682 88.9326 88.0183C90.0876 88.2814 91.0385 88.5986 91.7853 88.968C92.5322 89.3357 93.0881 89.7877 93.4528 90.3241C93.8176 90.8605 94 91.5099 94 92.274C94 92.8981 93.8696 93.47 93.6091 93.9878C93.3572 94.5056 92.9882 94.9543 92.5018 95.3322C92.0243 95.7016 91.451 95.9917 90.7824 96.2025C90.1223 96.4033 89.3798 96.5045 88.5547 96.5045C87.3129 96.5045 86.2621 96.2801 85.4023 95.8331C84.5426 95.3845 83.8912 94.8042 83.4483 94.0941C83.0055 93.3822 82.784 92.6299 82.784 91.8405H85.2069C85.2416 92.5068 85.4327 93.0398 85.7802 93.4345C86.1275 93.8208 86.553 94.0974 87.0568 94.2644C87.5605 94.423 88.0597 94.5023 88.5547 94.5023C89.2149 94.5023 89.7663 94.4146 90.2091 94.2374C90.6607 94.062 91.0038 93.8208 91.2383 93.5138C91.4727 93.2068 91.5899 92.8543 91.5899 92.4596Z" fill="black" fill-opacity="0.85"/>
<path d="M4.83987 120.275L8.45674 108.836H10.0439L9.73169 111.111L6.04987 122.743H4.50164L4.83987 120.275ZM2.40686 108.836L5.49033 120.404L5.71149 122.743H4.08532L0 108.836H2.40686ZM13.5046 120.313L16.4449 108.836H18.8387L14.7536 122.743H13.1404L13.5046 120.313ZM10.3951 108.836L13.9339 120.083L14.3372 122.743H12.802L9.01611 111.085L8.70386 108.836H10.3951ZM29.6112 120.366V113.206C29.6112 112.658 29.4985 112.182 29.273 111.779C29.0562 111.368 28.7265 111.05 28.2841 110.828C27.8418 110.604 27.2955 110.494 26.6448 110.494C26.0378 110.494 25.5043 110.596 25.0446 110.802C24.5937 111.008 24.238 111.277 23.9778 111.611C23.7262 111.947 23.6005 112.306 23.6005 112.692H21.1936C21.1936 112.195 21.3237 111.702 21.584 111.213C21.8441 110.725 22.2171 110.284 22.7029 109.89C23.1971 109.487 23.787 109.17 24.4721 108.938C25.166 108.699 25.9381 108.579 26.788 108.579C27.8115 108.579 28.7135 108.75 29.4942 109.092C30.2833 109.435 30.8992 109.955 31.3415 110.647C31.7926 111.333 32.0181 112.195 32.0181 113.232V119.709C32.0181 120.173 32.0571 120.665 32.1352 121.189C32.2219 121.71 32.3476 122.161 32.5125 122.538V122.743H30.0016C29.88 122.469 29.7847 122.105 29.7153 121.651C29.6459 121.189 29.6112 120.759 29.6112 120.366ZM30.0275 114.311L30.0535 115.983H27.6207C26.9354 115.983 26.3239 116.037 25.7862 116.149C25.2485 116.253 24.7975 116.411 24.4331 116.625C24.0689 116.838 23.7913 117.11 23.6005 117.434C23.4096 117.752 23.3142 118.125 23.3142 118.553C23.3142 118.99 23.414 119.389 23.6135 119.749C23.813 120.108 24.1122 120.396 24.5112 120.609C24.9189 120.815 25.4177 120.919 26.0073 120.919C26.7446 120.919 27.3952 120.764 27.9589 120.455C28.5226 120.147 28.9694 119.77 29.299 119.324C29.6372 118.879 29.8194 118.446 29.8454 118.026L30.8732 119.17C30.8124 119.53 30.6477 119.928 30.3788 120.366C30.11 120.802 29.7499 121.223 29.299 121.625C28.8567 122.019 28.3276 122.348 27.7118 122.615C27.1046 122.872 26.4193 123 25.6561 123C24.7021 123 23.8651 122.816 23.1452 122.447C22.4339 122.079 21.8789 121.587 21.4799 120.97C21.0895 120.345 20.8944 119.645 20.8944 118.874C20.8944 118.128 21.0419 117.474 21.3367 116.908C21.6316 116.333 22.0566 115.858 22.6118 115.481C23.1668 115.096 23.8346 114.803 24.6153 114.607C25.3958 114.41 26.2676 114.311 27.2303 114.311H30.0275ZM44.0004 119.055C44.0004 118.711 43.9223 118.395 43.7663 118.104C43.6187 117.803 43.311 117.533 42.8425 117.294C42.3829 117.044 41.689 116.83 40.7609 116.651C39.9804 116.488 39.2735 116.295 38.6403 116.072C38.0158 115.85 37.4824 115.58 37.04 115.262C36.6063 114.945 36.2724 114.573 36.0383 114.143C35.804 113.716 35.6869 113.214 35.6869 112.64C35.6869 112.092 35.8083 111.574 36.0513 111.085C36.3027 110.596 36.6541 110.164 37.1051 109.787C37.5647 109.41 38.1156 109.114 38.7574 108.9C39.3992 108.686 40.1148 108.579 40.904 108.579C42.0315 108.579 42.9943 108.775 43.7923 109.17C44.5903 109.565 45.2018 110.091 45.6268 110.751C46.0517 111.402 46.2642 112.126 46.2642 112.923H43.8574C43.8574 112.538 43.7403 112.164 43.506 111.806C43.2805 111.437 42.9466 111.133 42.5043 110.892C42.0707 110.652 41.5371 110.532 40.904 110.532C40.2362 110.532 39.6941 110.636 39.2778 110.841C38.8701 111.037 38.5709 111.291 38.38 111.6C38.1979 111.908 38.1069 112.233 38.1069 112.576C38.1069 112.834 38.1502 113.064 38.237 113.27C38.3324 113.467 38.4971 113.652 38.7314 113.823C38.9656 113.986 39.2951 114.14 39.7201 114.285C40.1451 114.431 40.6871 114.576 41.3464 114.723C42.5 114.979 43.4497 115.289 44.1956 115.649C44.9415 116.008 45.4965 116.449 45.8609 116.972C46.2253 117.495 46.4073 118.128 46.4073 118.874C46.4073 119.482 46.2772 120.04 46.0171 120.545C45.7655 121.05 45.3969 121.488 44.9112 121.857C44.4341 122.217 43.8617 122.5 43.1938 122.705C42.5346 122.901 41.7931 123 40.9691 123C39.7288 123 38.6793 122.781 37.8207 122.345C36.9619 121.908 36.3114 121.342 35.8691 120.649C35.4268 119.955 35.2056 119.221 35.2056 118.451H37.6255C37.6601 119.101 37.851 119.621 38.1978 120.006C38.5449 120.382 38.9699 120.652 39.473 120.815C39.9759 120.97 40.4747 121.047 40.9691 121.047C41.6282 121.047 42.1791 120.961 42.6214 120.789C43.0724 120.618 43.4149 120.382 43.6492 120.083C43.8834 119.783 44.0004 119.44 44.0004 119.055ZM55.4624 108.836V110.66H47.8514V108.836H55.4624ZM50.4275 105.455H52.8344V119.298C52.8344 119.77 52.9081 120.126 53.0555 120.366C53.203 120.606 53.3937 120.764 53.628 120.841C53.8622 120.919 54.1136 120.957 54.3826 120.957C54.5821 120.957 54.7902 120.94 55.0071 120.906C55.2325 120.863 55.4017 120.828 55.5145 120.802L55.5275 122.743C55.3366 122.803 55.0852 122.859 54.7729 122.911C54.4693 122.97 54.1006 123 53.667 123C53.0772 123 52.5351 122.885 52.0407 122.653C51.5464 122.423 51.1517 122.036 50.8568 121.496C50.5705 120.948 50.4275 120.211 50.4275 119.285V105.455ZM64.1273 123C63.1471 123 62.2581 122.837 61.4601 122.511C60.6708 122.177 59.99 121.71 59.4174 121.111C58.8537 120.511 58.4201 119.8 58.1165 118.977C57.8129 118.155 57.6611 117.255 57.6611 116.277V115.738C57.6611 114.607 57.8303 113.601 58.1685 112.717C58.5069 111.827 58.9665 111.072 59.5477 110.455C60.1287 109.838 60.7878 109.371 61.5251 109.055C62.2625 108.737 63.0257 108.579 63.8148 108.579C64.821 108.579 65.6883 108.75 66.417 109.092C67.1543 109.435 67.7569 109.915 68.2254 110.532C68.6937 111.141 69.0407 111.86 69.2662 112.692C69.4917 113.515 69.6044 114.415 69.6044 115.391V116.458H59.0922V114.517H67.1976V114.338C67.1629 113.721 67.0327 113.12 66.8072 112.538C66.5904 111.955 66.2435 111.475 65.7664 111.098C65.2895 110.721 64.6388 110.532 63.8148 110.532C63.2685 110.532 62.7654 110.647 62.3058 110.879C61.8461 111.101 61.4515 111.437 61.1219 111.881C60.7922 112.327 60.5364 112.872 60.3542 113.515C60.1722 114.157 60.0811 114.899 60.0811 115.738V116.277C60.0811 116.937 60.1722 117.559 60.3542 118.141C60.545 118.716 60.8183 119.221 61.1738 119.658C61.5382 120.096 61.9762 120.438 62.4879 120.687C63.0083 120.935 63.598 121.06 64.2573 121.06C65.1073 121.06 65.8272 120.887 66.417 120.545C67.0067 120.203 67.5228 119.744 67.9651 119.17L69.4222 120.313C69.1187 120.767 68.7328 121.2 68.2644 121.611C67.7961 122.023 67.2192 122.358 66.5341 122.615C65.8575 122.872 65.0552 123 64.1273 123ZM81.6389 103V122.743H79.2189V103H81.6389ZM91.3444 123C90.3644 123 89.4753 122.837 88.6773 122.511C87.8881 122.177 87.2072 121.71 86.6348 121.111C86.0709 120.511 85.6373 119.8 85.3337 118.977C85.0301 118.155 84.8784 117.255 84.8784 116.277V115.738C84.8784 114.607 85.0474 113.601 85.3858 112.717C85.724 111.827 86.1837 111.072 86.7649 110.455C87.3461 109.838 88.0052 109.371 88.7424 109.055C89.4796 108.737 90.2428 108.579 91.0322 108.579C92.0384 108.579 92.9057 108.75 93.6342 109.092C94.3715 109.435 94.9743 109.915 95.4426 110.532C95.911 111.141 96.2579 111.86 96.4834 112.692C96.709 113.515 96.8218 114.415 96.8218 115.391V116.458H86.3096V114.517H94.4148V114.338C94.3801 113.721 94.2501 113.12 94.0246 112.538C93.8078 111.955 93.4607 111.475 92.9838 111.098C92.5067 110.721 91.8562 110.532 91.0322 110.532C90.4858 110.532 89.9827 110.647 89.5231 110.879C89.0633 111.101 88.6686 111.437 88.3391 111.881C88.0095 112.327 87.7536 112.872 87.5715 113.515C87.3893 114.157 87.2983 114.899 87.2983 115.738V116.277C87.2983 116.937 87.3893 117.559 87.5715 118.141C87.7624 118.716 88.0355 119.221 88.3912 119.658C88.7554 120.096 89.1934 120.438 89.7051 120.687C90.2255 120.935 90.8154 121.06 91.4745 121.06C92.3245 121.06 93.0444 120.887 93.6342 120.545C94.2241 120.203 94.7402 119.744 95.1825 119.17L96.6396 120.313C96.336 120.767 95.95 121.2 95.4817 121.611C95.0133 122.023 94.4366 122.358 93.7513 122.615C93.0749 122.872 92.2725 123 91.3444 123ZM107.828 119.055C107.828 118.711 107.75 118.395 107.594 118.104C107.447 117.803 107.139 117.533 106.67 117.294C106.211 117.044 105.517 116.83 104.589 116.651C103.808 116.488 103.101 116.295 102.468 116.072C101.844 115.85 101.31 115.58 100.868 115.262C100.434 114.945 100.1 114.573 99.8661 114.143C99.632 113.716 99.5149 113.214 99.5149 112.64C99.5149 112.092 99.6363 111.574 99.8791 111.085C100.131 110.596 100.482 110.164 100.933 109.787C101.393 109.41 101.943 109.114 102.585 108.9C103.227 108.686 103.943 108.579 104.732 108.579C105.859 108.579 106.822 108.775 107.62 109.17C108.418 109.565 109.03 110.091 109.455 110.751C109.88 111.402 110.092 112.126 110.092 112.923H107.685C107.685 112.538 107.568 112.164 107.334 111.806C107.108 111.437 106.774 111.133 106.332 110.892C105.899 110.652 105.365 110.532 104.732 110.532C104.064 110.532 103.522 110.636 103.106 110.841C102.698 111.037 102.399 111.291 102.208 111.6C102.026 111.908 101.935 112.233 101.935 112.576C101.935 112.834 101.978 113.064 102.065 113.27C102.16 113.467 102.325 113.652 102.559 113.823C102.793 113.986 103.123 114.14 103.548 114.285C103.973 114.431 104.515 114.576 105.174 114.723C106.328 114.979 107.278 115.289 108.023 115.649C108.769 116.008 109.325 116.449 109.689 116.972C110.053 117.495 110.235 118.128 110.235 118.874C110.235 119.482 110.105 120.04 109.845 120.545C109.593 121.05 109.225 121.488 108.739 121.857C108.262 122.217 107.69 122.5 107.022 122.705C106.362 122.901 105.621 123 104.797 123C103.557 123 102.507 122.781 101.648 122.345C100.79 121.908 100.139 121.342 99.6969 120.649C99.2546 119.955 99.0335 119.221 99.0335 118.451H101.453C101.488 119.101 101.679 119.621 102.026 120.006C102.373 120.382 102.798 120.652 103.301 120.815C103.804 120.97 104.303 121.047 104.797 121.047C105.456 121.047 106.007 120.961 106.449 120.789C106.9 120.618 107.243 120.382 107.477 120.083C107.711 119.783 107.828 119.44 107.828 119.055ZM121.593 119.055C121.593 118.711 121.515 118.395 121.359 118.104C121.211 117.803 120.904 117.533 120.435 117.294C119.975 117.044 119.282 116.83 118.353 116.651C117.573 116.488 116.866 116.295 116.233 116.072C115.608 115.85 115.075 115.58 114.633 115.262C114.199 114.945 113.865 114.573 113.631 114.143C113.397 113.716 113.28 113.214 113.28 112.64C113.28 112.092 113.401 111.574 113.644 111.085C113.895 110.596 114.247 110.164 114.698 109.787C115.157 109.41 115.708 109.114 116.35 108.9C116.992 108.686 117.707 108.579 118.497 108.579C119.624 108.579 120.587 108.775 121.385 109.17C122.183 109.565 122.794 110.091 123.219 110.751C123.644 111.402 123.857 112.126 123.857 112.923H121.45C121.45 112.538 121.333 112.164 121.099 111.806C120.873 111.437 120.539 111.133 120.097 110.892C119.663 110.652 119.13 110.532 118.497 110.532C117.829 110.532 117.287 110.636 116.87 110.841C116.463 111.037 116.163 111.291 115.973 111.6C115.791 111.908 115.699 112.233 115.699 112.576C115.699 112.834 115.743 113.064 115.83 113.27C115.925 113.467 116.09 113.652 116.324 113.823C116.558 113.986 116.888 114.14 117.313 114.285C117.738 114.431 118.28 114.576 118.939 114.723C120.093 114.979 121.042 115.289 121.788 115.649C122.534 116.008 123.089 116.449 123.454 116.972C123.818 117.495 124 118.128 124 118.874C124 119.482 123.87 120.04 123.61 120.545C123.358 121.05 122.989 121.488 122.504 121.857C122.027 122.217 121.454 122.5 120.786 122.705C120.127 122.901 119.386 123 118.562 123C117.321 123 116.272 122.781 115.413 122.345C114.555 121.908 113.904 121.342 113.462 120.649C113.019 119.955 112.798 119.221 112.798 118.451H115.218C115.253 119.101 115.444 119.621 115.791 120.006C116.137 120.382 116.562 120.652 117.066 120.815C117.569 120.97 118.067 121.047 118.562 121.047C119.221 121.047 119.772 120.961 120.214 120.789C120.665 120.618 121.008 120.382 121.242 120.083C121.476 119.783 121.593 119.44 121.593 119.055Z" fill="black" fill-opacity="0.85"/>
</g>
<defs>
<clipPath id="clip0_21_13">
<rect width="249" height="123" fill="white"/>
</clipPath>
</defs>
</svg>
