<svg width="785" height="250" viewBox="0 0 785 250" fill="none" xmlns="http://www.w3.org/2000/svg">
<path d="M108.125 149C108.125 144.75 107.458 141 106.125 137.75C104.875 134.417 102.625 131.417 99.375 128.75C96.2083 126.083 91.7917 123.542 86.125 121.125C80.5417 118.708 73.4583 116.25 64.875 113.75C55.875 111.083 47.75 108.125 40.5 104.875C33.25 101.542 27.0417 97.75 21.875 93.5C16.7083 89.25 12.75 84.375 10 78.875C7.25 73.375 5.875 67.0833 5.875 60C5.875 52.9167 7.33333 46.375 10.25 40.375C13.1667 34.375 17.3333 29.1667 22.75 24.75C28.25 20.25 34.7917 16.75 42.375 14.25C49.9583 11.75 58.4167 10.5 67.75 10.5C81.4167 10.5 93 13.125 102.5 18.375C112.083 23.5417 119.375 30.3333 124.375 38.75C129.375 47.0833 131.875 56 131.875 65.5H107.875C107.875 58.6667 106.417 52.625 103.5 47.375C100.583 42.0417 96.1667 37.875 90.25 34.875C84.3333 31.7917 76.8333 30.25 67.75 30.25C59.1667 30.25 52.0833 31.5417 46.5 34.125C40.9167 36.7083 36.75 40.2083 34 44.625C31.3333 49.0417 30 54.0833 30 59.75C30 63.5833 30.7917 67.0833 32.375 70.25C34.0417 73.3333 36.5833 76.2083 40 78.875C43.5 81.5417 47.9167 84 53.25 86.25C58.6667 88.5 65.125 90.6667 72.625 92.75C82.9583 95.6667 91.875 98.9167 99.375 102.5C106.875 106.083 113.042 110.125 117.875 114.625C122.792 119.042 126.417 124.083 128.75 129.75C131.167 135.333 132.375 141.667 132.375 148.75C132.375 156.167 130.875 162.875 127.875 168.875C124.875 174.875 120.583 180 115 184.25C109.417 188.5 102.708 191.792 94.875 194.125C87.125 196.375 78.4583 197.5 68.875 197.5C60.4583 197.5 52.1667 196.333 44 194C35.9167 191.667 28.5417 188.167 21.875 183.5C15.2917 178.833 10 173.083 6 166.25C2.08333 159.333 0.125 151.333 0.125 142.25H24.125C24.125 148.5 25.3333 153.875 27.75 158.375C30.1667 162.792 33.4583 166.458 37.625 169.375C41.875 172.292 46.6667 174.458 52 175.875C57.4167 177.208 63.0417 177.875 68.875 177.875C77.2917 177.875 84.4167 176.708 90.25 174.375C96.0833 172.042 100.5 168.708 103.5 164.375C106.583 160.042 108.125 154.917 108.125 149ZM182.75 85.75V247H159.5V59.75H180.75L182.75 85.75ZM273.875 126.25V128.875C273.875 138.708 272.708 147.833 270.375 156.25C268.042 164.583 264.625 171.833 260.125 178C255.708 184.167 250.25 188.958 243.75 192.375C237.25 195.792 229.792 197.5 221.375 197.5C212.792 197.5 205.208 196.083 198.625 193.25C192.042 190.417 186.458 186.292 181.875 180.875C177.292 175.458 173.625 168.958 170.875 161.375C168.208 153.792 166.375 145.25 165.375 135.75V121.75C166.375 111.75 168.25 102.792 171 94.875C173.75 86.9583 177.375 80.2083 181.875 74.625C186.458 68.9583 192 64.6667 198.5 61.75C205 58.75 212.5 57.25 221 57.25C229.5 57.25 237.042 58.9167 243.625 62.25C250.208 65.5 255.75 70.1667 260.25 76.25C264.75 82.3333 268.125 89.625 270.375 98.125C272.708 106.542 273.875 115.917 273.875 126.25ZM250.625 128.875V126.25C250.625 119.5 249.917 113.167 248.5 107.25C247.083 101.25 244.875 96 241.875 91.5C238.958 86.9167 235.208 83.3333 230.625 80.75C226.042 78.0833 220.583 76.75 214.25 76.75C208.417 76.75 203.333 77.75 199 79.75C194.75 81.75 191.125 84.4583 188.125 87.875C185.125 91.2083 182.667 95.0417 180.75 99.375C178.917 103.625 177.542 108.042 176.625 112.625V145C178.292 150.833 180.625 156.333 183.625 161.5C186.625 166.583 190.625 170.708 195.625 173.875C200.625 176.958 206.917 178.5 214.5 178.5C220.75 178.5 226.125 177.208 230.625 174.625C235.208 171.958 238.958 168.333 241.875 163.75C244.875 159.167 247.083 153.917 248.5 148C249.917 142 250.625 135.625 250.625 128.875ZM297.25 128.875V126C297.25 116.25 298.667 107.208 301.5 98.875C304.333 90.4583 308.417 83.1667 313.75 77C319.083 70.75 325.542 65.9167 333.125 62.5C340.708 59 349.208 57.25 358.625 57.25C368.125 57.25 376.667 59 384.25 62.5C391.917 65.9167 398.417 70.75 403.75 77C409.167 83.1667 413.292 90.4583 416.125 98.875C418.958 107.208 420.375 116.25 420.375 126V128.875C420.375 138.625 418.958 147.667 416.125 156C413.292 164.333 409.167 171.625 403.75 177.875C398.417 184.042 391.958 188.875 384.375 192.375C376.875 195.792 368.375 197.5 358.875 197.5C349.375 197.5 340.833 195.792 333.25 192.375C325.667 188.875 319.167 184.042 313.75 177.875C308.417 171.625 304.333 164.333 301.5 156C298.667 147.667 297.25 138.625 297.25 128.875ZM320.375 126V128.875C320.375 135.625 321.167 142 322.75 148C324.333 153.917 326.708 159.167 329.875 163.75C333.125 168.333 337.167 171.958 342 174.625C346.833 177.208 352.458 178.5 358.875 178.5C365.208 178.5 370.75 177.208 375.5 174.625C380.333 171.958 384.333 168.333 387.5 163.75C390.667 159.167 393.042 153.917 394.625 148C396.292 142 397.125 135.625 397.125 128.875V126C397.125 119.333 396.292 113.042 394.625 107.125C393.042 101.125 390.625 95.8333 387.375 91.25C384.208 86.5833 380.208 82.9167 375.375 80.25C370.625 77.5833 365.042 76.25 358.625 76.25C352.292 76.25 346.708 77.5833 341.875 80.25C337.125 82.9167 333.125 86.5833 329.875 91.25C326.708 95.8333 324.333 101.125 322.75 107.125C321.167 113.042 320.375 119.333 320.375 126ZM506 59.75V77.5H432.875V59.75H506ZM457.625 26.875H480.75V161.5C480.75 166.083 481.458 169.542 482.875 171.875C484.292 174.208 486.125 175.75 488.375 176.5C490.625 177.25 493.042 177.625 495.625 177.625C497.542 177.625 499.542 177.458 501.625 177.125C503.792 176.708 505.417 176.375 506.5 176.125L506.625 195C504.792 195.583 502.375 196.125 499.375 196.625C496.458 197.208 492.917 197.5 488.75 197.5C483.083 197.5 477.875 196.375 473.125 194.125C468.375 191.875 464.583 188.125 461.75 182.875C459 177.542 457.625 170.375 457.625 161.375V26.875ZM558.25 59.75V195H535V59.75H558.25ZM533.25 23.875C533.25 20.125 534.375 16.9583 536.625 14.375C538.958 11.7917 542.375 10.5 546.875 10.5C551.292 10.5 554.667 11.7917 557 14.375C559.417 16.9583 560.625 20.125 560.625 23.875C560.625 27.4583 559.417 30.5417 557 33.125C554.667 35.625 551.292 36.875 546.875 36.875C542.375 36.875 538.958 35.625 536.625 33.125C534.375 30.5417 533.25 27.4583 533.25 23.875ZM629.875 195H606.75V45.5C606.75 35.75 608.5 27.5417 612 20.875C615.583 14.125 620.708 9.04167 627.375 5.625C634.042 2.125 641.958 0.375 651.125 0.375C653.792 0.375 656.458 0.541667 659.125 0.875C661.875 1.20833 664.542 1.70833 667.125 2.375L665.875 21.25C664.125 20.8333 662.125 20.5417 659.875 20.375C657.708 20.2083 655.542 20.125 653.375 20.125C648.458 20.125 644.208 21.125 640.625 23.125C637.125 25.0417 634.458 27.875 632.625 31.625C630.792 35.375 629.875 40 629.875 45.5V195ZM658.625 59.75V77.5H585.375V59.75H658.625ZM722.375 181L760 59.75H784.75L730.5 215.875C729.25 219.208 727.583 222.792 725.5 226.625C723.5 230.542 720.917 234.25 717.75 237.75C714.583 241.25 710.75 244.083 706.25 246.25C701.833 248.5 696.542 249.625 690.375 249.625C688.542 249.625 686.208 249.375 683.375 248.875C680.542 248.375 678.542 247.958 677.375 247.625L677.25 228.875C677.917 228.958 678.958 229.042 680.375 229.125C681.875 229.292 682.917 229.375 683.5 229.375C688.75 229.375 693.208 228.667 696.875 227.25C700.542 225.917 703.625 223.625 706.125 220.375C708.708 217.208 710.917 212.833 712.75 207.25L722.375 181ZM694.75 59.75L729.875 164.75L735.875 189.125L719.25 197.625L669.5 59.75H694.75Z" fill="#333333" fill-opacity="0.85"/>
</svg>
